<svg xmlns="http://www.w3.org/2000/svg" viewBox="0 0 900 360">
  <rect width="900" height="360" fill="#fff"/>
  <g stroke="#d8dde5" stroke-width="1">
    <path d="M150 30V330 M225 30V330 M300 30V330 M375 30V330 M450 30V330 M525 30V330 M600 30V330 M675 30V330 M750 30V330"/>
    <path d="M150 30H750 M150 105H750 M150 180H750 M150 255H750 M150 330H750"/>
  </g>
  <g stroke="#c21f26" stroke-width="3" fill="none">
    <line x1="145" y1="180" x2="755" y2="180"/>
    <line x1="450" y1="25" x2="450" y2="335"/>
    <path d="M145 180 l14 -8 M145 180 l14 8 M755 180 l-14 -8 M755 180 l-14 8"/>
    <path d="M450 25 l-8 14 M450 25 l8 14 M450 335 l-8 -14 M450 335 l8 -14"/>
  </g>
  <g font-family="Arial, sans-serif" font-size="20" fill="#555">
    <text x="595" y="95">I</text>
    <text x="295" y="95">II</text>
    <text x="290" y="275">III</text>
    <text x="590" y="275">IV</text>
  </g>
  <g font-family="Georgia, serif" font-style="italic" font-size="22" fill="#111">
    <text x="765" y="187">x</text>
    <text x="443" y="20">y</text>
  </g>
</svg>
